<mxfile host="app.diagrams.net" modified="2021-03-31T13:05:06.705Z" agent="5.0 (Windows NT 10.0; Win64; x64) AppleWebKit/537.36 (KHTML, like Gecko) Chrome/89.0.4389.90 Safari/537.36 Edg/89.0.774.63" etag="1qE3xTj5JyrFwiY7Kf--" version="14.4.9" type="github" pages="14">
  <diagram id="C5RBs43oDa-KdzZeNtuy" name="Page-1">
    <mxGraphModel dx="406" dy="458" grid="1" gridSize="10" guides="1" tooltips="1" connect="1" arrows="1" fold="1" page="1" pageScale="1" pageWidth="827" pageHeight="1169" math="0" shadow="0">
      <root>
        <mxCell id="WIyWlLk6GJQsqaUBKTNV-0" />
        <mxCell id="WIyWlLk6GJQsqaUBKTNV-1" parent="WIyWlLk6GJQsqaUBKTNV-0" />
        <mxCell id="d3RWAAnCqR9h0q6jmBbi-0" value="" style="endArrow=none;html=1;" edge="1" parent="WIyWlLk6GJQsqaUBKTNV-1">
          <mxGeometry width="50" height="50" relative="1" as="geometry">
            <mxPoint x="180" y="265" as="sourcePoint" />
            <mxPoint x="280" y="264.58" as="targetPoint" />
          </mxGeometry>
        </mxCell>
        <mxCell id="d3RWAAnCqR9h0q6jmBbi-1" value="" style="endArrow=none;html=1;" edge="1" parent="WIyWlLk6GJQsqaUBKTNV-1" source="d3RWAAnCqR9h0q6jmBbi-8">
          <mxGeometry width="50" height="50" relative="1" as="geometry">
            <mxPoint x="280" y="260" as="sourcePoint" />
            <mxPoint x="400" y="120" as="targetPoint" />
            <Array as="points">
              <mxPoint x="330" y="200" />
            </Array>
          </mxGeometry>
        </mxCell>
        <mxCell id="d3RWAAnCqR9h0q6jmBbi-3" value="" style="ellipse;whiteSpace=wrap;html=1;aspect=fixed;fillColor=#000000;" vertex="1" parent="WIyWlLk6GJQsqaUBKTNV-1">
          <mxGeometry x="398" y="110" width="12" height="12" as="geometry" />
        </mxCell>
        <mxCell id="d3RWAAnCqR9h0q6jmBbi-8" value="" style="ellipse;whiteSpace=wrap;html=1;aspect=fixed;fillColor=#000000;" vertex="1" parent="WIyWlLk6GJQsqaUBKTNV-1">
          <mxGeometry x="330" y="190" width="10" height="10" as="geometry" />
        </mxCell>
        <mxCell id="d3RWAAnCqR9h0q6jmBbi-9" value="" style="endArrow=none;html=1;" edge="1" parent="WIyWlLk6GJQsqaUBKTNV-1" source="d3RWAAnCqR9h0q6jmBbi-10" target="d3RWAAnCqR9h0q6jmBbi-8">
          <mxGeometry width="50" height="50" relative="1" as="geometry">
            <mxPoint x="280" y="260" as="sourcePoint" />
            <mxPoint x="400" y="120" as="targetPoint" />
            <Array as="points" />
          </mxGeometry>
        </mxCell>
        <mxCell id="d3RWAAnCqR9h0q6jmBbi-10" value="" style="ellipse;whiteSpace=wrap;html=1;aspect=fixed;fillColor=#000000;" vertex="1" parent="WIyWlLk6GJQsqaUBKTNV-1">
          <mxGeometry x="270" y="260" width="10" height="10" as="geometry" />
        </mxCell>
        <mxCell id="d3RWAAnCqR9h0q6jmBbi-22" value="" style="endArrow=none;html=1;" edge="1" parent="WIyWlLk6GJQsqaUBKTNV-1" target="d3RWAAnCqR9h0q6jmBbi-10">
          <mxGeometry width="50" height="50" relative="1" as="geometry">
            <mxPoint x="280" y="260" as="sourcePoint" />
            <mxPoint x="331.77028879268767" y="198.81693142682354" as="targetPoint" />
            <Array as="points" />
          </mxGeometry>
        </mxCell>
        <mxCell id="d3RWAAnCqR9h0q6jmBbi-23" value="" style="endArrow=none;html=1;exitX=1;exitY=0.5;exitDx=0;exitDy=0;" edge="1" parent="WIyWlLk6GJQsqaUBKTNV-1" source="d3RWAAnCqR9h0q6jmBbi-10">
          <mxGeometry width="50" height="50" relative="1" as="geometry">
            <mxPoint x="350" y="320" as="sourcePoint" />
            <mxPoint x="540" y="265" as="targetPoint" />
          </mxGeometry>
        </mxCell>
        <mxCell id="d3RWAAnCqR9h0q6jmBbi-24" value="&lt;font face=&quot;Times New Roman&quot;&gt;B&lt;/font&gt;" style="text;html=1;strokeColor=none;fillColor=none;align=center;verticalAlign=middle;whiteSpace=wrap;rounded=0;" vertex="1" parent="WIyWlLk6GJQsqaUBKTNV-1">
          <mxGeometry x="170" y="240" width="30" height="20" as="geometry" />
        </mxCell>
        <mxCell id="d3RWAAnCqR9h0q6jmBbi-25" value="&lt;font face=&quot;Times New Roman&quot;&gt;P&lt;/font&gt;" style="text;html=1;strokeColor=none;fillColor=none;align=center;verticalAlign=middle;whiteSpace=wrap;rounded=0;" vertex="1" parent="WIyWlLk6GJQsqaUBKTNV-1">
          <mxGeometry x="260" y="240" width="30" height="20" as="geometry" />
        </mxCell>
        <mxCell id="d3RWAAnCqR9h0q6jmBbi-26" value="&lt;font face=&quot;Times New Roman&quot;&gt;Q&lt;/font&gt;" style="text;html=1;strokeColor=none;fillColor=none;align=center;verticalAlign=middle;whiteSpace=wrap;rounded=0;" vertex="1" parent="WIyWlLk6GJQsqaUBKTNV-1">
          <mxGeometry x="300" y="180" width="30" height="20" as="geometry" />
        </mxCell>
        <mxCell id="d3RWAAnCqR9h0q6jmBbi-27" value="&lt;font face=&quot;Times New Roman&quot;&gt;A&lt;/font&gt;" style="text;html=1;strokeColor=none;fillColor=none;align=center;verticalAlign=middle;whiteSpace=wrap;rounded=0;" vertex="1" parent="WIyWlLk6GJQsqaUBKTNV-1">
          <mxGeometry x="368" y="100" width="30" height="20" as="geometry" />
        </mxCell>
        <mxCell id="d3RWAAnCqR9h0q6jmBbi-28" value="&lt;font face=&quot;Times New Roman&quot;&gt;C&lt;/font&gt;" style="text;html=1;strokeColor=none;fillColor=none;align=center;verticalAlign=middle;whiteSpace=wrap;rounded=0;" vertex="1" parent="WIyWlLk6GJQsqaUBKTNV-1">
          <mxGeometry x="510" y="240" width="30" height="20" as="geometry" />
        </mxCell>
      </root>
    </mxGraphModel>
  </diagram>
  <diagram id="w1_L62YjaTmqskC5YQtx" name="第 2 页">
    <mxGraphModel dx="301" dy="314" grid="1" gridSize="10" guides="1" tooltips="1" connect="1" arrows="1" fold="1" page="1" pageScale="1" pageWidth="827" pageHeight="1169" math="0" shadow="0">
      <root>
        <mxCell id="ZLEO4-SM7cCq7X5gQHX3-0" />
        <mxCell id="ZLEO4-SM7cCq7X5gQHX3-1" parent="ZLEO4-SM7cCq7X5gQHX3-0" />
        <mxCell id="AXPCnVi0QGCOwoy6R8yV-0" value="" style="endArrow=none;html=1;" edge="1" parent="ZLEO4-SM7cCq7X5gQHX3-1">
          <mxGeometry width="50" height="50" relative="1" as="geometry">
            <mxPoint x="350" y="485" as="sourcePoint" />
            <mxPoint x="450" y="484.5799999999999" as="targetPoint" />
          </mxGeometry>
        </mxCell>
        <mxCell id="AXPCnVi0QGCOwoy6R8yV-1" value="" style="endArrow=none;html=1;" edge="1" parent="ZLEO4-SM7cCq7X5gQHX3-1" source="AXPCnVi0QGCOwoy6R8yV-3">
          <mxGeometry width="50" height="50" relative="1" as="geometry">
            <mxPoint x="450" y="480" as="sourcePoint" />
            <mxPoint x="570" y="340" as="targetPoint" />
            <Array as="points">
              <mxPoint x="500" y="420" />
            </Array>
          </mxGeometry>
        </mxCell>
        <mxCell id="AXPCnVi0QGCOwoy6R8yV-2" value="" style="ellipse;whiteSpace=wrap;html=1;aspect=fixed;fillColor=#000000;" vertex="1" parent="ZLEO4-SM7cCq7X5gQHX3-1">
          <mxGeometry x="568" y="330" width="12" height="12" as="geometry" />
        </mxCell>
        <mxCell id="AXPCnVi0QGCOwoy6R8yV-3" value="" style="ellipse;whiteSpace=wrap;html=1;aspect=fixed;fillColor=#000000;" vertex="1" parent="ZLEO4-SM7cCq7X5gQHX3-1">
          <mxGeometry x="500" y="410" width="10" height="10" as="geometry" />
        </mxCell>
        <mxCell id="AXPCnVi0QGCOwoy6R8yV-4" value="" style="endArrow=none;html=1;" edge="1" parent="ZLEO4-SM7cCq7X5gQHX3-1" source="AXPCnVi0QGCOwoy6R8yV-5" target="AXPCnVi0QGCOwoy6R8yV-3">
          <mxGeometry width="50" height="50" relative="1" as="geometry">
            <mxPoint x="450" y="480" as="sourcePoint" />
            <mxPoint x="570" y="340" as="targetPoint" />
            <Array as="points" />
          </mxGeometry>
        </mxCell>
        <mxCell id="AXPCnVi0QGCOwoy6R8yV-5" value="" style="ellipse;whiteSpace=wrap;html=1;aspect=fixed;fillColor=#000000;" vertex="1" parent="ZLEO4-SM7cCq7X5gQHX3-1">
          <mxGeometry x="440" y="480" width="10" height="10" as="geometry" />
        </mxCell>
        <mxCell id="AXPCnVi0QGCOwoy6R8yV-6" value="" style="endArrow=none;html=1;" edge="1" parent="ZLEO4-SM7cCq7X5gQHX3-1" target="AXPCnVi0QGCOwoy6R8yV-5">
          <mxGeometry width="50" height="50" relative="1" as="geometry">
            <mxPoint x="450" y="480" as="sourcePoint" />
            <mxPoint x="501.77028879268767" y="418.81693142682354" as="targetPoint" />
            <Array as="points" />
          </mxGeometry>
        </mxCell>
        <mxCell id="AXPCnVi0QGCOwoy6R8yV-7" value="" style="endArrow=none;html=1;exitX=1;exitY=0.5;exitDx=0;exitDy=0;" edge="1" parent="ZLEO4-SM7cCq7X5gQHX3-1" source="AXPCnVi0QGCOwoy6R8yV-5">
          <mxGeometry width="50" height="50" relative="1" as="geometry">
            <mxPoint x="520" y="540" as="sourcePoint" />
            <mxPoint x="710.0000000000001" y="485" as="targetPoint" />
          </mxGeometry>
        </mxCell>
        <mxCell id="AXPCnVi0QGCOwoy6R8yV-8" value="&lt;font face=&quot;Times New Roman&quot;&gt;B&lt;/font&gt;" style="text;html=1;strokeColor=none;fillColor=none;align=center;verticalAlign=middle;whiteSpace=wrap;rounded=0;" vertex="1" parent="ZLEO4-SM7cCq7X5gQHX3-1">
          <mxGeometry x="340" y="460" width="30" height="20" as="geometry" />
        </mxCell>
        <mxCell id="AXPCnVi0QGCOwoy6R8yV-9" value="&lt;font face=&quot;Times New Roman&quot;&gt;P&lt;/font&gt;" style="text;html=1;strokeColor=none;fillColor=none;align=center;verticalAlign=middle;whiteSpace=wrap;rounded=0;" vertex="1" parent="ZLEO4-SM7cCq7X5gQHX3-1">
          <mxGeometry x="430" y="460" width="30" height="20" as="geometry" />
        </mxCell>
        <mxCell id="AXPCnVi0QGCOwoy6R8yV-10" value="&lt;font face=&quot;Times New Roman&quot;&gt;Q&lt;/font&gt;" style="text;html=1;strokeColor=none;fillColor=none;align=center;verticalAlign=middle;whiteSpace=wrap;rounded=0;" vertex="1" parent="ZLEO4-SM7cCq7X5gQHX3-1">
          <mxGeometry x="470" y="400" width="30" height="20" as="geometry" />
        </mxCell>
        <mxCell id="AXPCnVi0QGCOwoy6R8yV-11" value="&lt;font face=&quot;Times New Roman&quot;&gt;A&lt;/font&gt;" style="text;html=1;strokeColor=none;fillColor=none;align=center;verticalAlign=middle;whiteSpace=wrap;rounded=0;" vertex="1" parent="ZLEO4-SM7cCq7X5gQHX3-1">
          <mxGeometry x="538" y="320" width="30" height="20" as="geometry" />
        </mxCell>
        <mxCell id="AXPCnVi0QGCOwoy6R8yV-12" value="&lt;font face=&quot;Times New Roman&quot;&gt;C&lt;/font&gt;" style="text;html=1;strokeColor=none;fillColor=none;align=center;verticalAlign=middle;whiteSpace=wrap;rounded=0;" vertex="1" parent="ZLEO4-SM7cCq7X5gQHX3-1">
          <mxGeometry x="680" y="460" width="20" height="20" as="geometry" />
        </mxCell>
        <mxCell id="AXPCnVi0QGCOwoy6R8yV-14" value="" style="endArrow=none;dashed=1;html=1;entryX=1;entryY=1;entryDx=0;entryDy=0;" edge="1" parent="ZLEO4-SM7cCq7X5gQHX3-1" target="AXPCnVi0QGCOwoy6R8yV-3">
          <mxGeometry width="50" height="50" relative="1" as="geometry">
            <mxPoint x="509" y="490" as="sourcePoint" />
            <mxPoint x="560" y="420" as="targetPoint" />
          </mxGeometry>
        </mxCell>
        <mxCell id="AXPCnVi0QGCOwoy6R8yV-15" value="" style="endArrow=none;dashed=1;html=1;entryX=0.5;entryY=1;entryDx=0;entryDy=0;" edge="1" parent="ZLEO4-SM7cCq7X5gQHX3-1" target="AXPCnVi0QGCOwoy6R8yV-2">
          <mxGeometry width="50" height="50" relative="1" as="geometry">
            <mxPoint x="574" y="490" as="sourcePoint" />
            <mxPoint x="650" y="370" as="targetPoint" />
          </mxGeometry>
        </mxCell>
        <mxCell id="AXPCnVi0QGCOwoy6R8yV-16" value="&lt;font face=&quot;Times New Roman&quot;&gt;N&lt;/font&gt;" style="text;html=1;strokeColor=none;fillColor=none;align=center;verticalAlign=middle;whiteSpace=wrap;rounded=0;" vertex="1" parent="ZLEO4-SM7cCq7X5gQHX3-1">
          <mxGeometry x="480" y="460" width="30" height="20" as="geometry" />
        </mxCell>
        <mxCell id="AXPCnVi0QGCOwoy6R8yV-17" value="&lt;font face=&quot;Times New Roman&quot;&gt;M&lt;/font&gt;" style="text;html=1;strokeColor=none;fillColor=none;align=center;verticalAlign=middle;whiteSpace=wrap;rounded=0;" vertex="1" parent="ZLEO4-SM7cCq7X5gQHX3-1">
          <mxGeometry x="550" y="460" width="20" height="20" as="geometry" />
        </mxCell>
        <mxCell id="AXPCnVi0QGCOwoy6R8yV-18" value="" style="endArrow=none;html=1;exitX=1;exitY=0.75;exitDx=0;exitDy=0;rounded=0;" edge="1" parent="ZLEO4-SM7cCq7X5gQHX3-1" source="AXPCnVi0QGCOwoy6R8yV-16">
          <mxGeometry width="50" height="50" relative="1" as="geometry">
            <mxPoint x="380" y="560" as="sourcePoint" />
            <mxPoint x="520" y="490" as="targetPoint" />
            <Array as="points">
              <mxPoint x="520" y="475" />
            </Array>
          </mxGeometry>
        </mxCell>
        <mxCell id="AXPCnVi0QGCOwoy6R8yV-19" value="" style="endArrow=none;html=1;rounded=0;" edge="1" parent="ZLEO4-SM7cCq7X5gQHX3-1">
          <mxGeometry width="50" height="50" relative="1" as="geometry">
            <mxPoint x="570" y="470" as="sourcePoint" />
            <mxPoint x="590" y="490" as="targetPoint" />
            <Array as="points">
              <mxPoint x="590" y="470" />
            </Array>
          </mxGeometry>
        </mxCell>
      </root>
    </mxGraphModel>
  </diagram>
  <diagram id="i0LlkohTYB72nXObwZZF" name="第 3 页">
    <mxGraphModel dx="363" dy="379" grid="1" gridSize="10" guides="1" tooltips="1" connect="1" arrows="1" fold="1" page="1" pageScale="1" pageWidth="827" pageHeight="1169" math="0" shadow="0">
      <root>
        <mxCell id="-LpQs5YXSuV5d7OiX8L0-0" />
        <mxCell id="-LpQs5YXSuV5d7OiX8L0-1" parent="-LpQs5YXSuV5d7OiX8L0-0" />
        <mxCell id="-LpQs5YXSuV5d7OiX8L0-2" value="" style="endArrow=none;html=1;" edge="1" parent="-LpQs5YXSuV5d7OiX8L0-1">
          <mxGeometry width="50" height="50" relative="1" as="geometry">
            <mxPoint x="160" y="360" as="sourcePoint" />
            <mxPoint x="480" y="360" as="targetPoint" />
          </mxGeometry>
        </mxCell>
        <mxCell id="NnJUjYBMlVLratGEc8GW-0" value="" style="endArrow=none;html=1;" edge="1" parent="-LpQs5YXSuV5d7OiX8L0-1">
          <mxGeometry width="50" height="50" relative="1" as="geometry">
            <mxPoint x="240" y="360" as="sourcePoint" />
            <mxPoint x="330" y="290" as="targetPoint" />
          </mxGeometry>
        </mxCell>
        <mxCell id="NnJUjYBMlVLratGEc8GW-1" value="" style="endArrow=none;html=1;" edge="1" parent="-LpQs5YXSuV5d7OiX8L0-1">
          <mxGeometry width="50" height="50" relative="1" as="geometry">
            <mxPoint x="400" y="380" as="sourcePoint" />
            <mxPoint x="330" y="290" as="targetPoint" />
          </mxGeometry>
        </mxCell>
        <mxCell id="NnJUjYBMlVLratGEc8GW-2" value="" style="endArrow=none;html=1;" edge="1" parent="-LpQs5YXSuV5d7OiX8L0-1">
          <mxGeometry width="50" height="50" relative="1" as="geometry">
            <mxPoint x="240" y="360" as="sourcePoint" />
            <mxPoint x="400" y="380" as="targetPoint" />
          </mxGeometry>
        </mxCell>
        <mxCell id="XVO3sAcYT-5tApbso5L--0" value="&lt;font face=&quot;Times New Roman&quot;&gt;A&lt;/font&gt;" style="text;html=1;strokeColor=none;fillColor=none;align=center;verticalAlign=middle;whiteSpace=wrap;rounded=0;" vertex="1" parent="-LpQs5YXSuV5d7OiX8L0-1">
          <mxGeometry x="320" y="270" width="20" height="20" as="geometry" />
        </mxCell>
        <mxCell id="XVO3sAcYT-5tApbso5L--1" value="&lt;font face=&quot;Times New Roman&quot;&gt;B&lt;/font&gt;" style="text;html=1;strokeColor=none;fillColor=none;align=center;verticalAlign=middle;whiteSpace=wrap;rounded=0;" vertex="1" parent="-LpQs5YXSuV5d7OiX8L0-1">
          <mxGeometry x="160" y="360" width="20" height="20" as="geometry" />
        </mxCell>
        <mxCell id="XVO3sAcYT-5tApbso5L--2" value="&lt;font face=&quot;Times New Roman&quot;&gt;P&lt;/font&gt;" style="text;html=1;strokeColor=none;fillColor=none;align=center;verticalAlign=middle;whiteSpace=wrap;rounded=0;" vertex="1" parent="-LpQs5YXSuV5d7OiX8L0-1">
          <mxGeometry x="230" y="360" width="20" height="20" as="geometry" />
        </mxCell>
        <mxCell id="XVO3sAcYT-5tApbso5L--3" value="&lt;font face=&quot;Times New Roman&quot;&gt;Q&lt;/font&gt;" style="text;html=1;strokeColor=none;fillColor=none;align=center;verticalAlign=middle;whiteSpace=wrap;rounded=0;" vertex="1" parent="-LpQs5YXSuV5d7OiX8L0-1">
          <mxGeometry x="403" y="370" width="20" height="20" as="geometry" />
        </mxCell>
        <mxCell id="XVO3sAcYT-5tApbso5L--4" value="&lt;font face=&quot;Times New Roman&quot;&gt;C&lt;/font&gt;" style="text;html=1;strokeColor=none;fillColor=none;align=center;verticalAlign=middle;whiteSpace=wrap;rounded=0;" vertex="1" parent="-LpQs5YXSuV5d7OiX8L0-1">
          <mxGeometry x="460" y="360" width="20" height="20" as="geometry" />
        </mxCell>
      </root>
    </mxGraphModel>
  </diagram>
  <diagram id="QuDROwnUriVsrPvIvtD5" name="第 4 页">
    <mxGraphModel dx="363" dy="379" grid="1" gridSize="10" guides="1" tooltips="1" connect="1" arrows="1" fold="1" page="1" pageScale="1" pageWidth="827" pageHeight="1169" math="0" shadow="0">
      <root>
        <mxCell id="jAVb0n2CvF2hocNw-ZPR-0" />
        <mxCell id="jAVb0n2CvF2hocNw-ZPR-1" parent="jAVb0n2CvF2hocNw-ZPR-0" />
        <mxCell id="jAVb0n2CvF2hocNw-ZPR-2" value="" style="endArrow=none;html=1;" edge="1" parent="jAVb0n2CvF2hocNw-ZPR-1">
          <mxGeometry width="50" height="50" relative="1" as="geometry">
            <mxPoint x="80" y="300" as="sourcePoint" />
            <mxPoint x="170" y="230" as="targetPoint" />
          </mxGeometry>
        </mxCell>
        <mxCell id="jAVb0n2CvF2hocNw-ZPR-3" value="" style="endArrow=none;html=1;" edge="1" parent="jAVb0n2CvF2hocNw-ZPR-1">
          <mxGeometry width="50" height="50" relative="1" as="geometry">
            <mxPoint x="240" y="320" as="sourcePoint" />
            <mxPoint x="170" y="230" as="targetPoint" />
          </mxGeometry>
        </mxCell>
        <mxCell id="jAVb0n2CvF2hocNw-ZPR-4" value="" style="endArrow=none;html=1;" edge="1" parent="jAVb0n2CvF2hocNw-ZPR-1">
          <mxGeometry width="50" height="50" relative="1" as="geometry">
            <mxPoint x="80" y="300" as="sourcePoint" />
            <mxPoint x="240" y="320" as="targetPoint" />
          </mxGeometry>
        </mxCell>
        <mxCell id="jAVb0n2CvF2hocNw-ZPR-5" value="&lt;font face=&quot;Times New Roman&quot;&gt;A&lt;/font&gt;" style="text;html=1;strokeColor=none;fillColor=none;align=center;verticalAlign=middle;whiteSpace=wrap;rounded=0;" vertex="1" parent="jAVb0n2CvF2hocNw-ZPR-1">
          <mxGeometry x="160" y="210" width="20" height="20" as="geometry" />
        </mxCell>
        <mxCell id="jAVb0n2CvF2hocNw-ZPR-6" value="&lt;font face=&quot;Times New Roman&quot;&gt;P&lt;/font&gt;" style="text;html=1;strokeColor=none;fillColor=none;align=center;verticalAlign=middle;whiteSpace=wrap;rounded=0;" vertex="1" parent="jAVb0n2CvF2hocNw-ZPR-1">
          <mxGeometry x="70" y="300" width="20" height="20" as="geometry" />
        </mxCell>
        <mxCell id="jAVb0n2CvF2hocNw-ZPR-7" value="&lt;font face=&quot;Times New Roman&quot;&gt;Q&lt;sub&gt;1&lt;/sub&gt;&lt;/font&gt;" style="text;html=1;strokeColor=none;fillColor=none;align=center;verticalAlign=middle;whiteSpace=wrap;rounded=0;" vertex="1" parent="jAVb0n2CvF2hocNw-ZPR-1">
          <mxGeometry x="243" y="310" width="20" height="20" as="geometry" />
        </mxCell>
        <mxCell id="MytqWwswxgIxFhjmnkP_-0" value="" style="endArrow=none;html=1;exitX=0.5;exitY=0;exitDx=0;exitDy=0;" edge="1" parent="jAVb0n2CvF2hocNw-ZPR-1" source="jAVb0n2CvF2hocNw-ZPR-6">
          <mxGeometry width="50" height="50" relative="1" as="geometry">
            <mxPoint x="260" y="280" as="sourcePoint" />
            <mxPoint x="280" y="300" as="targetPoint" />
          </mxGeometry>
        </mxCell>
        <mxCell id="MytqWwswxgIxFhjmnkP_-1" value="" style="endArrow=none;html=1;exitX=0.5;exitY=1;exitDx=0;exitDy=0;" edge="1" parent="jAVb0n2CvF2hocNw-ZPR-1" source="jAVb0n2CvF2hocNw-ZPR-5">
          <mxGeometry width="50" height="50" relative="1" as="geometry">
            <mxPoint x="220" y="250" as="sourcePoint" />
            <mxPoint x="280" y="300" as="targetPoint" />
          </mxGeometry>
        </mxCell>
        <mxCell id="MytqWwswxgIxFhjmnkP_-2" value="" style="endArrow=none;html=1;" edge="1" parent="jAVb0n2CvF2hocNw-ZPR-1">
          <mxGeometry width="50" height="50" relative="1" as="geometry">
            <mxPoint x="170" y="230" as="sourcePoint" />
            <mxPoint x="240" y="130" as="targetPoint" />
          </mxGeometry>
        </mxCell>
        <mxCell id="MytqWwswxgIxFhjmnkP_-3" value="" style="endArrow=none;html=1;" edge="1" parent="jAVb0n2CvF2hocNw-ZPR-1">
          <mxGeometry width="50" height="50" relative="1" as="geometry">
            <mxPoint x="240" y="130" as="sourcePoint" />
            <mxPoint x="280" y="300" as="targetPoint" />
          </mxGeometry>
        </mxCell>
        <mxCell id="MytqWwswxgIxFhjmnkP_-4" value="" style="endArrow=none;dashed=1;html=1;" edge="1" parent="jAVb0n2CvF2hocNw-ZPR-1">
          <mxGeometry width="50" height="50" relative="1" as="geometry">
            <mxPoint x="240" y="130" as="sourcePoint" />
            <mxPoint x="240" y="320" as="targetPoint" />
          </mxGeometry>
        </mxCell>
        <mxCell id="MytqWwswxgIxFhjmnkP_-5" value="Q&lt;sub&gt;2&lt;/sub&gt;" style="text;whiteSpace=wrap;html=1;" vertex="1" parent="jAVb0n2CvF2hocNw-ZPR-1">
          <mxGeometry x="243" y="110" width="20" height="30" as="geometry" />
        </mxCell>
        <mxCell id="MytqWwswxgIxFhjmnkP_-6" value="&lt;font face=&quot;Times New Roman&quot;&gt;C&lt;/font&gt;" style="text;html=1;strokeColor=none;fillColor=none;align=center;verticalAlign=middle;whiteSpace=wrap;rounded=0;" vertex="1" parent="jAVb0n2CvF2hocNw-ZPR-1">
          <mxGeometry x="280" y="290" width="20" height="20" as="geometry" />
        </mxCell>
      </root>
    </mxGraphModel>
  </diagram>
  <diagram id="E2tX0HKWYBYfsBtUvRFF" name="第 5 页">
    <mxGraphModel dx="363" dy="379" grid="1" gridSize="10" guides="1" tooltips="1" connect="1" arrows="1" fold="1" page="1" pageScale="1" pageWidth="827" pageHeight="1169" math="0" shadow="0">
      <root>
        <mxCell id="oREPdkuYrvxQ6txbI_fk-0" />
        <mxCell id="oREPdkuYrvxQ6txbI_fk-1" parent="oREPdkuYrvxQ6txbI_fk-0" />
        <mxCell id="I6CJTeDJDqODotbd7BZY-0" value="" style="endArrow=none;html=1;" edge="1" parent="oREPdkuYrvxQ6txbI_fk-1">
          <mxGeometry width="50" height="50" relative="1" as="geometry">
            <mxPoint x="120" y="280" as="sourcePoint" />
            <mxPoint x="360" y="280" as="targetPoint" />
          </mxGeometry>
        </mxCell>
        <mxCell id="I6CJTeDJDqODotbd7BZY-1" value="" style="endArrow=none;html=1;" edge="1" parent="oREPdkuYrvxQ6txbI_fk-1">
          <mxGeometry width="50" height="50" relative="1" as="geometry">
            <mxPoint x="170" y="280" as="sourcePoint" />
            <mxPoint x="240" y="180" as="targetPoint" />
          </mxGeometry>
        </mxCell>
        <mxCell id="I6CJTeDJDqODotbd7BZY-2" value="" style="endArrow=none;html=1;" edge="1" parent="oREPdkuYrvxQ6txbI_fk-1">
          <mxGeometry width="50" height="50" relative="1" as="geometry">
            <mxPoint x="240" y="180" as="sourcePoint" />
            <mxPoint x="280" y="220" as="targetPoint" />
          </mxGeometry>
        </mxCell>
        <mxCell id="I6CJTeDJDqODotbd7BZY-3" value="" style="endArrow=none;html=1;" edge="1" parent="oREPdkuYrvxQ6txbI_fk-1">
          <mxGeometry width="50" height="50" relative="1" as="geometry">
            <mxPoint x="260" y="250" as="sourcePoint" />
            <mxPoint x="310" y="170" as="targetPoint" />
          </mxGeometry>
        </mxCell>
        <mxCell id="I6CJTeDJDqODotbd7BZY-4" value="" style="endArrow=none;dashed=1;html=1;" edge="1" parent="oREPdkuYrvxQ6txbI_fk-1">
          <mxGeometry width="50" height="50" relative="1" as="geometry">
            <mxPoint x="240" y="280" as="sourcePoint" />
            <mxPoint x="260" y="250" as="targetPoint" />
          </mxGeometry>
        </mxCell>
        <mxCell id="__83Zb_pS2h0zAh5gjcL-0" value="&lt;font face=&quot;Times New Roman&quot;&gt;A&lt;/font&gt;" style="text;html=1;strokeColor=none;fillColor=none;align=center;verticalAlign=middle;whiteSpace=wrap;rounded=0;" vertex="1" parent="oREPdkuYrvxQ6txbI_fk-1">
          <mxGeometry x="230" y="160" width="20" height="20" as="geometry" />
        </mxCell>
        <mxCell id="__83Zb_pS2h0zAh5gjcL-1" value="&lt;font face=&quot;Times New Roman&quot;&gt;B&lt;/font&gt;" style="text;html=1;strokeColor=none;fillColor=none;align=center;verticalAlign=middle;whiteSpace=wrap;rounded=0;" vertex="1" parent="oREPdkuYrvxQ6txbI_fk-1">
          <mxGeometry x="120" y="260" width="20" height="20" as="geometry" />
        </mxCell>
        <mxCell id="__83Zb_pS2h0zAh5gjcL-2" value="&lt;font face=&quot;Times New Roman&quot;&gt;P&lt;/font&gt;" style="text;html=1;strokeColor=none;fillColor=none;align=center;verticalAlign=middle;whiteSpace=wrap;rounded=0;" vertex="1" parent="oREPdkuYrvxQ6txbI_fk-1">
          <mxGeometry x="160" y="260" width="20" height="20" as="geometry" />
        </mxCell>
        <mxCell id="__83Zb_pS2h0zAh5gjcL-3" value="&lt;font face=&quot;Times New Roman&quot;&gt;M&lt;/font&gt;" style="text;html=1;strokeColor=none;fillColor=none;align=center;verticalAlign=middle;whiteSpace=wrap;rounded=0;" vertex="1" parent="oREPdkuYrvxQ6txbI_fk-1">
          <mxGeometry x="260" y="240" width="20" height="20" as="geometry" />
        </mxCell>
        <mxCell id="__83Zb_pS2h0zAh5gjcL-4" value="&lt;font face=&quot;Times New Roman&quot;&gt;Q&lt;/font&gt;" style="text;html=1;strokeColor=none;fillColor=none;align=center;verticalAlign=middle;whiteSpace=wrap;rounded=0;" vertex="1" parent="oREPdkuYrvxQ6txbI_fk-1">
          <mxGeometry x="280" y="210" width="20" height="20" as="geometry" />
        </mxCell>
        <mxCell id="__83Zb_pS2h0zAh5gjcL-5" value="&lt;font face=&quot;Times New Roman&quot;&gt;N&lt;/font&gt;" style="text;html=1;strokeColor=none;fillColor=none;align=center;verticalAlign=middle;whiteSpace=wrap;rounded=0;" vertex="1" parent="oREPdkuYrvxQ6txbI_fk-1">
          <mxGeometry x="310" y="160" width="20" height="20" as="geometry" />
        </mxCell>
        <mxCell id="__83Zb_pS2h0zAh5gjcL-6" value="&lt;font face=&quot;Times New Roman&quot;&gt;C&lt;/font&gt;" style="text;html=1;strokeColor=none;fillColor=none;align=center;verticalAlign=middle;whiteSpace=wrap;rounded=0;" vertex="1" parent="oREPdkuYrvxQ6txbI_fk-1">
          <mxGeometry x="340" y="260" width="20" height="20" as="geometry" />
        </mxCell>
      </root>
    </mxGraphModel>
  </diagram>
  <diagram id="SgtVoLVtDCmnXq2SMu5y" name="第 6 页">
    <mxGraphModel dx="653" dy="429" grid="1" gridSize="10" guides="1" tooltips="1" connect="1" arrows="1" fold="1" page="1" pageScale="1" pageWidth="827" pageHeight="1169" math="0" shadow="0">
      <root>
        <mxCell id="rlutmPQIMONit-uDh1w--0" />
        <mxCell id="rlutmPQIMONit-uDh1w--1" parent="rlutmPQIMONit-uDh1w--0" />
        <mxCell id="9vRO2RbnN0WNtQXjXGOc-0" value="" style="endArrow=none;html=1;" edge="1" parent="rlutmPQIMONit-uDh1w--1">
          <mxGeometry width="50" height="50" relative="1" as="geometry">
            <mxPoint x="120" y="400" as="sourcePoint" />
            <mxPoint x="360" y="400" as="targetPoint" />
          </mxGeometry>
        </mxCell>
        <mxCell id="9vRO2RbnN0WNtQXjXGOc-1" value="" style="endArrow=none;dashed=1;html=1;" edge="1" parent="rlutmPQIMONit-uDh1w--1">
          <mxGeometry width="50" height="50" relative="1" as="geometry">
            <mxPoint x="120" y="400" as="sourcePoint" />
            <mxPoint x="240" y="280" as="targetPoint" />
          </mxGeometry>
        </mxCell>
        <mxCell id="9vRO2RbnN0WNtQXjXGOc-2" value="" style="endArrow=none;dashed=1;html=1;" edge="1" parent="rlutmPQIMONit-uDh1w--1">
          <mxGeometry width="50" height="50" relative="1" as="geometry">
            <mxPoint x="240" y="280" as="sourcePoint" />
            <mxPoint x="360" y="400" as="targetPoint" />
          </mxGeometry>
        </mxCell>
        <mxCell id="9vRO2RbnN0WNtQXjXGOc-3" value="" style="endArrow=none;dashed=1;html=1;" edge="1" parent="rlutmPQIMONit-uDh1w--1">
          <mxGeometry width="50" height="50" relative="1" as="geometry">
            <mxPoint x="240" y="280" as="sourcePoint" />
            <mxPoint x="260" y="340" as="targetPoint" />
          </mxGeometry>
        </mxCell>
        <mxCell id="9vRO2RbnN0WNtQXjXGOc-4" value="" style="endArrow=none;dashed=1;html=1;" edge="1" parent="rlutmPQIMONit-uDh1w--1">
          <mxGeometry width="50" height="50" relative="1" as="geometry">
            <mxPoint x="240" y="280" as="sourcePoint" />
            <mxPoint x="300" y="260" as="targetPoint" />
          </mxGeometry>
        </mxCell>
        <mxCell id="9vRO2RbnN0WNtQXjXGOc-5" value="" style="endArrow=none;html=1;" edge="1" parent="rlutmPQIMONit-uDh1w--1">
          <mxGeometry width="50" height="50" relative="1" as="geometry">
            <mxPoint x="260" y="340" as="sourcePoint" />
            <mxPoint x="300" y="260" as="targetPoint" />
          </mxGeometry>
        </mxCell>
        <mxCell id="9vRO2RbnN0WNtQXjXGOc-6" value="" style="endArrow=none;dashed=1;html=1;" edge="1" parent="rlutmPQIMONit-uDh1w--1">
          <mxGeometry width="50" height="50" relative="1" as="geometry">
            <mxPoint x="230" y="400" as="sourcePoint" />
            <mxPoint x="260" y="340" as="targetPoint" />
          </mxGeometry>
        </mxCell>
        <mxCell id="gBTL7IlAuwHdGpHUQCiG-0" value="&lt;font face=&quot;Times New Roman&quot;&gt;A&lt;/font&gt;" style="text;html=1;strokeColor=none;fillColor=none;align=center;verticalAlign=middle;whiteSpace=wrap;rounded=0;" vertex="1" parent="rlutmPQIMONit-uDh1w--1">
          <mxGeometry x="230" y="260" width="20" height="20" as="geometry" />
        </mxCell>
        <mxCell id="gBTL7IlAuwHdGpHUQCiG-1" value="&lt;font face=&quot;Times New Roman&quot;&gt;B&lt;/font&gt;" style="text;html=1;strokeColor=none;fillColor=none;align=center;verticalAlign=middle;whiteSpace=wrap;rounded=0;" vertex="1" parent="rlutmPQIMONit-uDh1w--1">
          <mxGeometry x="100" y="380" width="20" height="20" as="geometry" />
        </mxCell>
        <mxCell id="gBTL7IlAuwHdGpHUQCiG-2" value="&lt;font face=&quot;Times New Roman&quot;&gt;C&lt;/font&gt;" style="text;html=1;strokeColor=none;fillColor=none;align=center;verticalAlign=middle;whiteSpace=wrap;rounded=0;" vertex="1" parent="rlutmPQIMONit-uDh1w--1">
          <mxGeometry x="360" y="380" width="20" height="20" as="geometry" />
        </mxCell>
        <mxCell id="gBTL7IlAuwHdGpHUQCiG-3" value="&lt;font face=&quot;Times New Roman&quot;&gt;M&lt;/font&gt;" style="text;html=1;strokeColor=none;fillColor=none;align=center;verticalAlign=middle;whiteSpace=wrap;rounded=0;" vertex="1" parent="rlutmPQIMONit-uDh1w--1">
          <mxGeometry x="260" y="330" width="20" height="20" as="geometry" />
        </mxCell>
        <mxCell id="gBTL7IlAuwHdGpHUQCiG-4" value="&lt;font face=&quot;Times New Roman&quot;&gt;N&lt;/font&gt;" style="text;html=1;strokeColor=none;fillColor=none;align=center;verticalAlign=middle;whiteSpace=wrap;rounded=0;" vertex="1" parent="rlutmPQIMONit-uDh1w--1">
          <mxGeometry x="300" y="250" width="20" height="20" as="geometry" />
        </mxCell>
      </root>
    </mxGraphModel>
  </diagram>
  <diagram id="W42mjLckQH8AotG7Vl8r" name="第 7 页">
    <mxGraphModel dx="789" dy="518" grid="1" gridSize="10" guides="1" tooltips="1" connect="1" arrows="1" fold="1" page="1" pageScale="1" pageWidth="827" pageHeight="1169" math="0" shadow="0">
      <root>
        <mxCell id="3Dk-oCu9P8HA_X272p1K-0" />
        <mxCell id="3Dk-oCu9P8HA_X272p1K-1" parent="3Dk-oCu9P8HA_X272p1K-0" />
        <mxCell id="3Dk-oCu9P8HA_X272p1K-2" value="" style="endArrow=none;html=1;" edge="1" parent="3Dk-oCu9P8HA_X272p1K-1">
          <mxGeometry width="50" height="50" relative="1" as="geometry">
            <mxPoint x="200" y="360" as="sourcePoint" />
            <mxPoint x="440" y="360" as="targetPoint" />
          </mxGeometry>
        </mxCell>
        <mxCell id="3Dk-oCu9P8HA_X272p1K-3" value="" style="endArrow=none;html=1;" edge="1" parent="3Dk-oCu9P8HA_X272p1K-1">
          <mxGeometry width="50" height="50" relative="1" as="geometry">
            <mxPoint x="200" y="360" as="sourcePoint" />
            <mxPoint x="200" y="200" as="targetPoint" />
          </mxGeometry>
        </mxCell>
        <mxCell id="3Dk-oCu9P8HA_X272p1K-4" value="" style="endArrow=none;html=1;" edge="1" parent="3Dk-oCu9P8HA_X272p1K-1">
          <mxGeometry width="50" height="50" relative="1" as="geometry">
            <mxPoint x="200" y="280" as="sourcePoint" />
            <mxPoint x="360" y="360" as="targetPoint" />
          </mxGeometry>
        </mxCell>
        <mxCell id="3Dk-oCu9P8HA_X272p1K-5" value="" style="endArrow=none;html=1;" edge="1" parent="3Dk-oCu9P8HA_X272p1K-1">
          <mxGeometry width="50" height="50" relative="1" as="geometry">
            <mxPoint x="200" y="280" as="sourcePoint" />
            <mxPoint x="320" y="240" as="targetPoint" />
          </mxGeometry>
        </mxCell>
        <mxCell id="3Dk-oCu9P8HA_X272p1K-6" value="" style="endArrow=none;html=1;" edge="1" parent="3Dk-oCu9P8HA_X272p1K-1">
          <mxGeometry width="50" height="50" relative="1" as="geometry">
            <mxPoint x="320" y="240" as="sourcePoint" />
            <mxPoint x="360" y="360" as="targetPoint" />
          </mxGeometry>
        </mxCell>
        <mxCell id="3Dk-oCu9P8HA_X272p1K-7" value="" style="endArrow=none;html=1;" edge="1" parent="3Dk-oCu9P8HA_X272p1K-1">
          <mxGeometry width="50" height="50" relative="1" as="geometry">
            <mxPoint x="280" y="360" as="sourcePoint" />
            <mxPoint x="320" y="240" as="targetPoint" />
          </mxGeometry>
        </mxCell>
        <mxCell id="-YcTes_pQTMmXY7A8Ycz-0" value="&lt;font face=&quot;Times New Roman&quot;&gt;A&lt;/font&gt;" style="text;html=1;strokeColor=none;fillColor=none;align=center;verticalAlign=middle;whiteSpace=wrap;rounded=0;" vertex="1" parent="3Dk-oCu9P8HA_X272p1K-1">
          <mxGeometry x="200" y="200" width="20" height="20" as="geometry" />
        </mxCell>
        <mxCell id="-YcTes_pQTMmXY7A8Ycz-1" value="&lt;font face=&quot;Times New Roman&quot;&gt;B&lt;/font&gt;" style="text;html=1;strokeColor=none;fillColor=none;align=center;verticalAlign=middle;whiteSpace=wrap;rounded=0;" vertex="1" parent="3Dk-oCu9P8HA_X272p1K-1">
          <mxGeometry x="414" y="340" width="20" height="20" as="geometry" />
        </mxCell>
        <mxCell id="-YcTes_pQTMmXY7A8Ycz-2" value="&lt;font face=&quot;Times New Roman&quot;&gt;O&lt;/font&gt;" style="text;html=1;strokeColor=none;fillColor=none;align=center;verticalAlign=middle;whiteSpace=wrap;rounded=0;" vertex="1" parent="3Dk-oCu9P8HA_X272p1K-1">
          <mxGeometry x="200" y="340" width="20" height="20" as="geometry" />
        </mxCell>
        <mxCell id="-YcTes_pQTMmXY7A8Ycz-3" value="&lt;font face=&quot;Times New Roman&quot;&gt;Q&lt;/font&gt;" style="text;html=1;strokeColor=none;fillColor=none;align=center;verticalAlign=middle;whiteSpace=wrap;rounded=0;" vertex="1" parent="3Dk-oCu9P8HA_X272p1K-1">
          <mxGeometry x="260" y="340" width="20" height="20" as="geometry" />
        </mxCell>
        <mxCell id="-YcTes_pQTMmXY7A8Ycz-4" value="&lt;font face=&quot;Times New Roman&quot;&gt;N&lt;/font&gt;" style="text;html=1;strokeColor=none;fillColor=none;align=center;verticalAlign=middle;whiteSpace=wrap;rounded=0;" vertex="1" parent="3Dk-oCu9P8HA_X272p1K-1">
          <mxGeometry x="360" y="340" width="20" height="20" as="geometry" />
        </mxCell>
        <mxCell id="-YcTes_pQTMmXY7A8Ycz-5" value="&lt;font face=&quot;Times New Roman&quot;&gt;M&lt;/font&gt;" style="text;html=1;strokeColor=none;fillColor=none;align=center;verticalAlign=middle;whiteSpace=wrap;rounded=0;" vertex="1" parent="3Dk-oCu9P8HA_X272p1K-1">
          <mxGeometry x="200" y="260" width="20" height="20" as="geometry" />
        </mxCell>
        <mxCell id="-YcTes_pQTMmXY7A8Ycz-6" value="&lt;font face=&quot;Times New Roman&quot;&gt;P&lt;/font&gt;" style="text;html=1;strokeColor=none;fillColor=none;align=center;verticalAlign=middle;whiteSpace=wrap;rounded=0;" vertex="1" parent="3Dk-oCu9P8HA_X272p1K-1">
          <mxGeometry x="320" y="220" width="20" height="20" as="geometry" />
        </mxCell>
      </root>
    </mxGraphModel>
  </diagram>
  <diagram id="cqSXilD5pK2igNpv0jC1" name="第 8 页">
    <mxGraphModel dx="789" dy="518" grid="1" gridSize="10" guides="1" tooltips="1" connect="1" arrows="1" fold="1" page="1" pageScale="1" pageWidth="827" pageHeight="1169" math="0" shadow="0">
      <root>
        <mxCell id="msc0klFJDufo_-nzm8VQ-0" />
        <mxCell id="msc0klFJDufo_-nzm8VQ-1" parent="msc0klFJDufo_-nzm8VQ-0" />
        <mxCell id="msc0klFJDufo_-nzm8VQ-2" value="" style="endArrow=none;html=1;" edge="1" parent="msc0klFJDufo_-nzm8VQ-1">
          <mxGeometry width="50" height="50" relative="1" as="geometry">
            <mxPoint x="160" y="360" as="sourcePoint" />
            <mxPoint x="360" y="360" as="targetPoint" />
          </mxGeometry>
        </mxCell>
        <mxCell id="msc0klFJDufo_-nzm8VQ-3" value="" style="endArrow=none;html=1;" edge="1" parent="msc0klFJDufo_-nzm8VQ-1">
          <mxGeometry width="50" height="50" relative="1" as="geometry">
            <mxPoint x="160" y="360" as="sourcePoint" />
            <mxPoint x="40" y="220" as="targetPoint" />
          </mxGeometry>
        </mxCell>
        <mxCell id="msc0klFJDufo_-nzm8VQ-4" value="" style="endArrow=none;html=1;" edge="1" parent="msc0klFJDufo_-nzm8VQ-1">
          <mxGeometry width="50" height="50" relative="1" as="geometry">
            <mxPoint x="40" y="220" as="sourcePoint" />
            <mxPoint x="360" y="360" as="targetPoint" />
          </mxGeometry>
        </mxCell>
        <mxCell id="msc0klFJDufo_-nzm8VQ-5" value="" style="endArrow=none;html=1;" edge="1" parent="msc0klFJDufo_-nzm8VQ-1">
          <mxGeometry width="50" height="50" relative="1" as="geometry">
            <mxPoint x="120" y="310" as="sourcePoint" />
            <mxPoint x="290" y="360" as="targetPoint" />
          </mxGeometry>
        </mxCell>
        <mxCell id="msc0klFJDufo_-nzm8VQ-6" value="" style="endArrow=none;html=1;" edge="1" parent="msc0klFJDufo_-nzm8VQ-1">
          <mxGeometry width="50" height="50" relative="1" as="geometry">
            <mxPoint x="120" y="310" as="sourcePoint" />
            <mxPoint x="260" y="200" as="targetPoint" />
          </mxGeometry>
        </mxCell>
        <mxCell id="msc0klFJDufo_-nzm8VQ-7" value="" style="endArrow=none;html=1;" edge="1" parent="msc0klFJDufo_-nzm8VQ-1">
          <mxGeometry width="50" height="50" relative="1" as="geometry">
            <mxPoint x="290" y="360" as="sourcePoint" />
            <mxPoint x="260" y="200" as="targetPoint" />
          </mxGeometry>
        </mxCell>
        <mxCell id="0b9kXn2CY0xanl5M84Dx-0" value="&lt;font face=&quot;Times New Roman&quot;&gt;A&lt;/font&gt;" style="text;html=1;strokeColor=none;fillColor=none;align=center;verticalAlign=middle;whiteSpace=wrap;rounded=0;" vertex="1" parent="msc0klFJDufo_-nzm8VQ-1">
          <mxGeometry x="130" y="350" width="20" height="20" as="geometry" />
        </mxCell>
        <mxCell id="0b9kXn2CY0xanl5M84Dx-1" value="&lt;font face=&quot;Times New Roman&quot;&gt;B&lt;/font&gt;" style="text;html=1;strokeColor=none;fillColor=none;align=center;verticalAlign=middle;whiteSpace=wrap;rounded=0;" vertex="1" parent="msc0klFJDufo_-nzm8VQ-1">
          <mxGeometry x="360" y="350" width="20" height="20" as="geometry" />
        </mxCell>
        <mxCell id="0b9kXn2CY0xanl5M84Dx-2" value="&lt;font face=&quot;Times New Roman&quot;&gt;C&lt;/font&gt;" style="text;html=1;strokeColor=none;fillColor=none;align=center;verticalAlign=middle;whiteSpace=wrap;rounded=0;" vertex="1" parent="msc0klFJDufo_-nzm8VQ-1">
          <mxGeometry x="50" y="210" width="20" height="20" as="geometry" />
        </mxCell>
        <mxCell id="0b9kXn2CY0xanl5M84Dx-3" value="&lt;font face=&quot;Times New Roman&quot;&gt;M&lt;/font&gt;" style="text;html=1;strokeColor=none;fillColor=none;align=center;verticalAlign=middle;whiteSpace=wrap;rounded=0;" vertex="1" parent="msc0klFJDufo_-nzm8VQ-1">
          <mxGeometry x="90" y="300" width="20" height="20" as="geometry" />
        </mxCell>
        <mxCell id="0b9kXn2CY0xanl5M84Dx-4" value="&lt;font face=&quot;Times New Roman&quot;&gt;N&lt;/font&gt;" style="text;html=1;strokeColor=none;fillColor=none;align=center;verticalAlign=middle;whiteSpace=wrap;rounded=0;" vertex="1" parent="msc0klFJDufo_-nzm8VQ-1">
          <mxGeometry x="280" y="360" width="20" height="20" as="geometry" />
        </mxCell>
        <mxCell id="0b9kXn2CY0xanl5M84Dx-5" value="&lt;font face=&quot;Times New Roman&quot;&gt;P&lt;/font&gt;" style="text;html=1;strokeColor=none;fillColor=none;align=center;verticalAlign=middle;whiteSpace=wrap;rounded=0;" vertex="1" parent="msc0klFJDufo_-nzm8VQ-1">
          <mxGeometry x="250" y="180" width="20" height="20" as="geometry" />
        </mxCell>
        <mxCell id="0b9kXn2CY0xanl5M84Dx-6" value="" style="endArrow=none;html=1;exitX=0.5;exitY=1;exitDx=0;exitDy=0;entryX=0;entryY=0.5;entryDx=0;entryDy=0;" edge="1" parent="msc0klFJDufo_-nzm8VQ-1" source="0b9kXn2CY0xanl5M84Dx-5" target="0b9kXn2CY0xanl5M84Dx-1">
          <mxGeometry width="50" height="50" relative="1" as="geometry">
            <mxPoint x="340" y="250" as="sourcePoint" />
            <mxPoint x="390" y="200" as="targetPoint" />
          </mxGeometry>
        </mxCell>
      </root>
    </mxGraphModel>
  </diagram>
  <diagram id="sLINPb_VtFqI4ixwdnNW" name="第 9 页">
    <mxGraphModel dx="789" dy="518" grid="1" gridSize="10" guides="1" tooltips="1" connect="1" arrows="1" fold="1" page="1" pageScale="1" pageWidth="827" pageHeight="1169" math="0" shadow="0">
      <root>
        <mxCell id="XdmAsM0GAyhTkGlTxlzn-0" />
        <mxCell id="XdmAsM0GAyhTkGlTxlzn-1" parent="XdmAsM0GAyhTkGlTxlzn-0" />
        <mxCell id="XdmAsM0GAyhTkGlTxlzn-2" value="" style="endArrow=none;html=1;" edge="1" parent="XdmAsM0GAyhTkGlTxlzn-1">
          <mxGeometry width="50" height="50" relative="1" as="geometry">
            <mxPoint x="280" y="360" as="sourcePoint" />
            <mxPoint x="520" y="360" as="targetPoint" />
          </mxGeometry>
        </mxCell>
        <mxCell id="XdmAsM0GAyhTkGlTxlzn-3" value="" style="endArrow=none;html=1;" edge="1" parent="XdmAsM0GAyhTkGlTxlzn-1">
          <mxGeometry width="50" height="50" relative="1" as="geometry">
            <mxPoint x="280" y="360" as="sourcePoint" />
            <mxPoint x="360" y="230" as="targetPoint" />
          </mxGeometry>
        </mxCell>
        <mxCell id="XdmAsM0GAyhTkGlTxlzn-4" value="" style="endArrow=none;html=1;" edge="1" parent="XdmAsM0GAyhTkGlTxlzn-1">
          <mxGeometry width="50" height="50" relative="1" as="geometry">
            <mxPoint x="360" y="230" as="sourcePoint" />
            <mxPoint x="520" y="360" as="targetPoint" />
          </mxGeometry>
        </mxCell>
        <mxCell id="XdmAsM0GAyhTkGlTxlzn-5" value="" style="endArrow=none;html=1;entryX=1;entryY=0.5;entryDx=0;entryDy=0;" edge="1" parent="XdmAsM0GAyhTkGlTxlzn-1" target="WLWjEEN-tZWNUyB17Ds4-3">
          <mxGeometry width="50" height="50" relative="1" as="geometry">
            <mxPoint x="440" y="360" as="sourcePoint" />
            <mxPoint x="320" y="320" as="targetPoint" />
          </mxGeometry>
        </mxCell>
        <mxCell id="XdmAsM0GAyhTkGlTxlzn-6" value="" style="endArrow=none;html=1;exitX=1;exitY=0.5;exitDx=0;exitDy=0;" edge="1" parent="XdmAsM0GAyhTkGlTxlzn-1" source="WLWjEEN-tZWNUyB17Ds4-3">
          <mxGeometry width="50" height="50" relative="1" as="geometry">
            <mxPoint x="320" y="320" as="sourcePoint" />
            <mxPoint x="400" y="300" as="targetPoint" />
          </mxGeometry>
        </mxCell>
        <mxCell id="XdmAsM0GAyhTkGlTxlzn-7" value="" style="endArrow=none;html=1;" edge="1" parent="XdmAsM0GAyhTkGlTxlzn-1">
          <mxGeometry width="50" height="50" relative="1" as="geometry">
            <mxPoint x="440" y="360" as="sourcePoint" />
            <mxPoint x="400" y="300" as="targetPoint" />
          </mxGeometry>
        </mxCell>
        <mxCell id="WLWjEEN-tZWNUyB17Ds4-0" value="&lt;font face=&quot;Times New Roman&quot;&gt;A&lt;/font&gt;" style="text;html=1;strokeColor=none;fillColor=none;align=center;verticalAlign=middle;whiteSpace=wrap;rounded=0;" vertex="1" parent="XdmAsM0GAyhTkGlTxlzn-1">
          <mxGeometry x="260" y="340" width="20" height="20" as="geometry" />
        </mxCell>
        <mxCell id="WLWjEEN-tZWNUyB17Ds4-1" value="&lt;font face=&quot;Times New Roman&quot;&gt;N&lt;/font&gt;" style="text;html=1;strokeColor=none;fillColor=none;align=center;verticalAlign=middle;whiteSpace=wrap;rounded=0;" vertex="1" parent="XdmAsM0GAyhTkGlTxlzn-1">
          <mxGeometry x="430" y="360" width="20" height="20" as="geometry" />
        </mxCell>
        <mxCell id="WLWjEEN-tZWNUyB17Ds4-2" value="&lt;font face=&quot;Times New Roman&quot;&gt;C&lt;/font&gt;" style="text;html=1;strokeColor=none;fillColor=none;align=center;verticalAlign=middle;whiteSpace=wrap;rounded=0;" vertex="1" parent="XdmAsM0GAyhTkGlTxlzn-1">
          <mxGeometry x="520" y="340" width="20" height="20" as="geometry" />
        </mxCell>
        <mxCell id="WLWjEEN-tZWNUyB17Ds4-3" value="&lt;font face=&quot;Times New Roman&quot;&gt;M&lt;/font&gt;" style="text;html=1;strokeColor=none;fillColor=none;align=center;verticalAlign=middle;whiteSpace=wrap;rounded=0;" vertex="1" parent="XdmAsM0GAyhTkGlTxlzn-1">
          <mxGeometry x="290" y="300" width="20" height="20" as="geometry" />
        </mxCell>
        <mxCell id="WLWjEEN-tZWNUyB17Ds4-4" value="&lt;font face=&quot;Times New Roman&quot;&gt;B&lt;/font&gt;" style="text;html=1;strokeColor=none;fillColor=none;align=center;verticalAlign=middle;whiteSpace=wrap;rounded=0;" vertex="1" parent="XdmAsM0GAyhTkGlTxlzn-1">
          <mxGeometry x="350" y="210" width="20" height="20" as="geometry" />
        </mxCell>
        <mxCell id="WLWjEEN-tZWNUyB17Ds4-5" value="&lt;font face=&quot;Times New Roman&quot;&gt;P&lt;/font&gt;" style="text;html=1;strokeColor=none;fillColor=none;align=center;verticalAlign=middle;whiteSpace=wrap;rounded=0;" vertex="1" parent="XdmAsM0GAyhTkGlTxlzn-1">
          <mxGeometry x="404" y="290" width="20" height="20" as="geometry" />
        </mxCell>
        <mxCell id="98x0TjCmmq-PO50pFjQT-0" value="" style="endArrow=none;html=1;entryX=0.5;entryY=1;entryDx=0;entryDy=0;" edge="1" parent="XdmAsM0GAyhTkGlTxlzn-1" target="WLWjEEN-tZWNUyB17Ds4-4">
          <mxGeometry width="50" height="50" relative="1" as="geometry">
            <mxPoint x="400" y="300" as="sourcePoint" />
            <mxPoint x="290" y="180" as="targetPoint" />
          </mxGeometry>
        </mxCell>
      </root>
    </mxGraphModel>
  </diagram>
  <diagram id="dOlQUOT8JZPEqiAwO2K3" name="第 10 页">
    <mxGraphModel dx="947" dy="577" grid="1" gridSize="10" guides="1" tooltips="1" connect="1" arrows="1" fold="1" page="1" pageScale="1" pageWidth="827" pageHeight="1169" math="0" shadow="0">
      <root>
        <mxCell id="oP9wt0NDqyAv52bJLSwF-0" />
        <mxCell id="oP9wt0NDqyAv52bJLSwF-1" parent="oP9wt0NDqyAv52bJLSwF-0" />
        <mxCell id="rfSqA7w5OTbI_c8XWRgq-0" value="" style="endArrow=none;html=1;" edge="1" parent="oP9wt0NDqyAv52bJLSwF-1">
          <mxGeometry width="50" height="50" relative="1" as="geometry">
            <mxPoint x="240" y="240" as="sourcePoint" />
            <mxPoint x="360" y="360" as="targetPoint" />
          </mxGeometry>
        </mxCell>
        <mxCell id="rfSqA7w5OTbI_c8XWRgq-1" value="" style="endArrow=none;html=1;" edge="1" parent="oP9wt0NDqyAv52bJLSwF-1">
          <mxGeometry width="50" height="50" relative="1" as="geometry">
            <mxPoint x="360" y="360" as="sourcePoint" />
            <mxPoint x="480" y="240" as="targetPoint" />
          </mxGeometry>
        </mxCell>
        <mxCell id="rfSqA7w5OTbI_c8XWRgq-2" value="" style="endArrow=none;html=1;" edge="1" parent="oP9wt0NDqyAv52bJLSwF-1">
          <mxGeometry width="50" height="50" relative="1" as="geometry">
            <mxPoint x="240" y="240" as="sourcePoint" />
            <mxPoint x="480" y="240" as="targetPoint" />
          </mxGeometry>
        </mxCell>
        <mxCell id="rfSqA7w5OTbI_c8XWRgq-3" value="" style="endArrow=none;html=1;" edge="1" parent="oP9wt0NDqyAv52bJLSwF-1">
          <mxGeometry width="50" height="50" relative="1" as="geometry">
            <mxPoint x="280" y="280" as="sourcePoint" />
            <mxPoint x="400" y="320" as="targetPoint" />
          </mxGeometry>
        </mxCell>
        <mxCell id="rfSqA7w5OTbI_c8XWRgq-4" value="" style="endArrow=none;html=1;" edge="1" parent="oP9wt0NDqyAv52bJLSwF-1">
          <mxGeometry width="50" height="50" relative="1" as="geometry">
            <mxPoint x="280" y="280" as="sourcePoint" />
            <mxPoint x="360" y="240" as="targetPoint" />
          </mxGeometry>
        </mxCell>
        <mxCell id="rfSqA7w5OTbI_c8XWRgq-5" value="" style="endArrow=none;html=1;" edge="1" parent="oP9wt0NDqyAv52bJLSwF-1">
          <mxGeometry width="50" height="50" relative="1" as="geometry">
            <mxPoint x="360" y="240" as="sourcePoint" />
            <mxPoint x="400" y="320" as="targetPoint" />
          </mxGeometry>
        </mxCell>
        <mxCell id="RS45Iwuh-4RekvOgi5uj-0" value="&lt;font face=&quot;Times New Roman&quot;&gt;A&lt;/font&gt;" style="text;html=1;strokeColor=none;fillColor=none;align=center;verticalAlign=middle;whiteSpace=wrap;rounded=0;" vertex="1" parent="oP9wt0NDqyAv52bJLSwF-1">
          <mxGeometry x="230" y="220" width="20" height="20" as="geometry" />
        </mxCell>
        <mxCell id="RS45Iwuh-4RekvOgi5uj-1" value="&lt;font face=&quot;Times New Roman&quot;&gt;B&lt;/font&gt;" style="text;html=1;strokeColor=none;fillColor=none;align=center;verticalAlign=middle;whiteSpace=wrap;rounded=0;" vertex="1" parent="oP9wt0NDqyAv52bJLSwF-1">
          <mxGeometry x="480" y="220" width="20" height="20" as="geometry" />
        </mxCell>
        <mxCell id="RS45Iwuh-4RekvOgi5uj-2" value="&lt;font face=&quot;Times New Roman&quot;&gt;C&lt;/font&gt;" style="text;html=1;strokeColor=none;fillColor=none;align=center;verticalAlign=middle;whiteSpace=wrap;rounded=0;" vertex="1" parent="oP9wt0NDqyAv52bJLSwF-1">
          <mxGeometry x="350" y="360" width="20" height="20" as="geometry" />
        </mxCell>
        <mxCell id="RS45Iwuh-4RekvOgi5uj-3" value="&lt;font face=&quot;Times New Roman&quot;&gt;P&lt;/font&gt;" style="text;html=1;strokeColor=none;fillColor=none;align=center;verticalAlign=middle;whiteSpace=wrap;rounded=0;" vertex="1" parent="oP9wt0NDqyAv52bJLSwF-1">
          <mxGeometry x="260" y="280" width="20" height="20" as="geometry" />
        </mxCell>
        <mxCell id="RS45Iwuh-4RekvOgi5uj-4" value="&lt;font face=&quot;Times New Roman&quot;&gt;Q&lt;/font&gt;" style="text;html=1;strokeColor=none;fillColor=none;align=center;verticalAlign=middle;whiteSpace=wrap;rounded=0;" vertex="1" parent="oP9wt0NDqyAv52bJLSwF-1">
          <mxGeometry x="404" y="310" width="20" height="20" as="geometry" />
        </mxCell>
        <mxCell id="RS45Iwuh-4RekvOgi5uj-5" value="&lt;font face=&quot;Times New Roman&quot;&gt;M&lt;/font&gt;" style="text;html=1;strokeColor=none;fillColor=none;align=center;verticalAlign=middle;whiteSpace=wrap;rounded=0;" vertex="1" parent="oP9wt0NDqyAv52bJLSwF-1">
          <mxGeometry x="330" y="300" width="20" height="20" as="geometry" />
        </mxCell>
        <mxCell id="RS45Iwuh-4RekvOgi5uj-6" value="&lt;font face=&quot;Times New Roman&quot;&gt;O&lt;/font&gt;" style="text;html=1;strokeColor=none;fillColor=none;align=center;verticalAlign=middle;whiteSpace=wrap;rounded=0;" vertex="1" parent="oP9wt0NDqyAv52bJLSwF-1">
          <mxGeometry x="350" y="220" width="20" height="20" as="geometry" />
        </mxCell>
      </root>
    </mxGraphModel>
  </diagram>
  <diagram id="uid1QWF5rKspv47LZLxm" name="第 11 页">
    <mxGraphModel dx="947" dy="577" grid="1" gridSize="10" guides="1" tooltips="1" connect="1" arrows="1" fold="1" page="1" pageScale="1" pageWidth="827" pageHeight="1169" math="0" shadow="0">
      <root>
        <mxCell id="RX6GdLRwaRv3_QGLF3tq-0" />
        <mxCell id="RX6GdLRwaRv3_QGLF3tq-1" parent="RX6GdLRwaRv3_QGLF3tq-0" />
        <mxCell id="RX6GdLRwaRv3_QGLF3tq-2" value="" style="endArrow=none;html=1;" edge="1" parent="RX6GdLRwaRv3_QGLF3tq-1">
          <mxGeometry width="50" height="50" relative="1" as="geometry">
            <mxPoint x="240" y="240" as="sourcePoint" />
            <mxPoint x="360" y="360" as="targetPoint" />
          </mxGeometry>
        </mxCell>
        <mxCell id="RX6GdLRwaRv3_QGLF3tq-3" value="" style="endArrow=none;html=1;" edge="1" parent="RX6GdLRwaRv3_QGLF3tq-1">
          <mxGeometry width="50" height="50" relative="1" as="geometry">
            <mxPoint x="360" y="360" as="sourcePoint" />
            <mxPoint x="480" y="240" as="targetPoint" />
          </mxGeometry>
        </mxCell>
        <mxCell id="RX6GdLRwaRv3_QGLF3tq-4" value="" style="endArrow=none;html=1;" edge="1" parent="RX6GdLRwaRv3_QGLF3tq-1">
          <mxGeometry width="50" height="50" relative="1" as="geometry">
            <mxPoint x="240" y="240" as="sourcePoint" />
            <mxPoint x="480" y="240" as="targetPoint" />
          </mxGeometry>
        </mxCell>
        <mxCell id="RX6GdLRwaRv3_QGLF3tq-8" value="&lt;font face=&quot;Times New Roman&quot;&gt;A&lt;/font&gt;" style="text;html=1;strokeColor=none;fillColor=none;align=center;verticalAlign=middle;whiteSpace=wrap;rounded=0;" vertex="1" parent="RX6GdLRwaRv3_QGLF3tq-1">
          <mxGeometry x="230" y="220" width="20" height="20" as="geometry" />
        </mxCell>
        <mxCell id="RX6GdLRwaRv3_QGLF3tq-9" value="&lt;font face=&quot;Times New Roman&quot;&gt;B&lt;/font&gt;" style="text;html=1;strokeColor=none;fillColor=none;align=center;verticalAlign=middle;whiteSpace=wrap;rounded=0;" vertex="1" parent="RX6GdLRwaRv3_QGLF3tq-1">
          <mxGeometry x="480" y="220" width="20" height="20" as="geometry" />
        </mxCell>
        <mxCell id="RX6GdLRwaRv3_QGLF3tq-10" value="&lt;font face=&quot;Times New Roman&quot;&gt;C&lt;/font&gt;" style="text;html=1;strokeColor=none;fillColor=none;align=center;verticalAlign=middle;whiteSpace=wrap;rounded=0;" vertex="1" parent="RX6GdLRwaRv3_QGLF3tq-1">
          <mxGeometry x="350" y="360" width="20" height="20" as="geometry" />
        </mxCell>
        <mxCell id="RX6GdLRwaRv3_QGLF3tq-11" value="&lt;font face=&quot;Times New Roman&quot;&gt;P&lt;/font&gt;" style="text;html=1;strokeColor=none;fillColor=none;align=center;verticalAlign=middle;whiteSpace=wrap;rounded=0;" vertex="1" parent="RX6GdLRwaRv3_QGLF3tq-1">
          <mxGeometry x="260" y="280" width="20" height="20" as="geometry" />
        </mxCell>
        <mxCell id="RX6GdLRwaRv3_QGLF3tq-12" value="&lt;font face=&quot;Times New Roman&quot;&gt;Q&lt;/font&gt;" style="text;html=1;strokeColor=none;fillColor=none;align=center;verticalAlign=middle;whiteSpace=wrap;rounded=0;" vertex="1" parent="RX6GdLRwaRv3_QGLF3tq-1">
          <mxGeometry x="404" y="310" width="20" height="20" as="geometry" />
        </mxCell>
        <mxCell id="RX6GdLRwaRv3_QGLF3tq-14" value="&lt;font face=&quot;Times New Roman&quot;&gt;O&lt;/font&gt;" style="text;html=1;strokeColor=none;fillColor=none;align=center;verticalAlign=middle;whiteSpace=wrap;rounded=0;" vertex="1" parent="RX6GdLRwaRv3_QGLF3tq-1">
          <mxGeometry x="310" y="220" width="20" height="20" as="geometry" />
        </mxCell>
        <mxCell id="RX6GdLRwaRv3_QGLF3tq-15" value="" style="endArrow=none;html=1;exitX=1;exitY=0;exitDx=0;exitDy=0;" edge="1" parent="RX6GdLRwaRv3_QGLF3tq-1" source="RX6GdLRwaRv3_QGLF3tq-11">
          <mxGeometry width="50" height="50" relative="1" as="geometry">
            <mxPoint x="310" y="230" as="sourcePoint" />
            <mxPoint x="320" y="240" as="targetPoint" />
          </mxGeometry>
        </mxCell>
        <mxCell id="RX6GdLRwaRv3_QGLF3tq-16" value="" style="endArrow=none;html=1;" edge="1" parent="RX6GdLRwaRv3_QGLF3tq-1">
          <mxGeometry width="50" height="50" relative="1" as="geometry">
            <mxPoint x="320" y="240" as="sourcePoint" />
            <mxPoint x="400" y="320" as="targetPoint" />
          </mxGeometry>
        </mxCell>
        <mxCell id="RX6GdLRwaRv3_QGLF3tq-17" value="" style="endArrow=none;html=1;" edge="1" parent="RX6GdLRwaRv3_QGLF3tq-1">
          <mxGeometry width="50" height="50" relative="1" as="geometry">
            <mxPoint x="280" y="280" as="sourcePoint" />
            <mxPoint x="400" y="320" as="targetPoint" />
          </mxGeometry>
        </mxCell>
        <mxCell id="RX6GdLRwaRv3_QGLF3tq-18" value="&lt;font face=&quot;Times New Roman&quot;&gt;M&lt;/font&gt;" style="text;html=1;strokeColor=none;fillColor=none;align=center;verticalAlign=middle;whiteSpace=wrap;rounded=0;" vertex="1" parent="RX6GdLRwaRv3_QGLF3tq-1">
          <mxGeometry x="330" y="300" width="20" height="20" as="geometry" />
        </mxCell>
      </root>
    </mxGraphModel>
  </diagram>
  <diagram id="j94N6fQ2MzzY5Oxl0pnQ" name="第 12 页">
    <mxGraphModel dx="653" dy="398" grid="1" gridSize="10" guides="1" tooltips="1" connect="1" arrows="1" fold="1" page="1" pageScale="1" pageWidth="827" pageHeight="1169" math="0" shadow="0">
      <root>
        <mxCell id="TTzXCabCXYMHxSIDEWQK-0" />
        <mxCell id="TTzXCabCXYMHxSIDEWQK-1" parent="TTzXCabCXYMHxSIDEWQK-0" />
        <mxCell id="TTzXCabCXYMHxSIDEWQK-2" value="" style="endArrow=none;html=1;" edge="1" parent="TTzXCabCXYMHxSIDEWQK-1">
          <mxGeometry width="50" height="50" relative="1" as="geometry">
            <mxPoint x="240" y="240" as="sourcePoint" />
            <mxPoint x="360" y="360" as="targetPoint" />
          </mxGeometry>
        </mxCell>
        <mxCell id="TTzXCabCXYMHxSIDEWQK-3" value="" style="endArrow=none;html=1;" edge="1" parent="TTzXCabCXYMHxSIDEWQK-1">
          <mxGeometry width="50" height="50" relative="1" as="geometry">
            <mxPoint x="360" y="360" as="sourcePoint" />
            <mxPoint x="480" y="240" as="targetPoint" />
          </mxGeometry>
        </mxCell>
        <mxCell id="TTzXCabCXYMHxSIDEWQK-4" value="" style="endArrow=none;html=1;" edge="1" parent="TTzXCabCXYMHxSIDEWQK-1">
          <mxGeometry width="50" height="50" relative="1" as="geometry">
            <mxPoint x="240" y="240" as="sourcePoint" />
            <mxPoint x="480" y="240" as="targetPoint" />
          </mxGeometry>
        </mxCell>
        <mxCell id="TTzXCabCXYMHxSIDEWQK-5" value="&lt;font face=&quot;Times New Roman&quot;&gt;A&lt;/font&gt;" style="text;html=1;strokeColor=none;fillColor=none;align=center;verticalAlign=middle;whiteSpace=wrap;rounded=0;" vertex="1" parent="TTzXCabCXYMHxSIDEWQK-1">
          <mxGeometry x="230" y="220" width="20" height="20" as="geometry" />
        </mxCell>
        <mxCell id="TTzXCabCXYMHxSIDEWQK-6" value="&lt;font face=&quot;Times New Roman&quot;&gt;B&lt;/font&gt;" style="text;html=1;strokeColor=none;fillColor=none;align=center;verticalAlign=middle;whiteSpace=wrap;rounded=0;" vertex="1" parent="TTzXCabCXYMHxSIDEWQK-1">
          <mxGeometry x="480" y="220" width="20" height="20" as="geometry" />
        </mxCell>
        <mxCell id="TTzXCabCXYMHxSIDEWQK-7" value="&lt;font face=&quot;Times New Roman&quot;&gt;C&lt;/font&gt;" style="text;html=1;strokeColor=none;fillColor=none;align=center;verticalAlign=middle;whiteSpace=wrap;rounded=0;" vertex="1" parent="TTzXCabCXYMHxSIDEWQK-1">
          <mxGeometry x="350" y="360" width="20" height="20" as="geometry" />
        </mxCell>
        <mxCell id="TTzXCabCXYMHxSIDEWQK-9" value="&lt;font face=&quot;Times New Roman&quot;&gt;Q&lt;/font&gt;" style="text;html=1;strokeColor=none;fillColor=none;align=center;verticalAlign=middle;whiteSpace=wrap;rounded=0;" vertex="1" parent="TTzXCabCXYMHxSIDEWQK-1">
          <mxGeometry x="380" y="340" width="20" height="20" as="geometry" />
        </mxCell>
        <mxCell id="TTzXCabCXYMHxSIDEWQK-11" value="" style="endArrow=none;html=1;" edge="1" parent="TTzXCabCXYMHxSIDEWQK-1">
          <mxGeometry width="50" height="50" relative="1" as="geometry">
            <mxPoint x="280" y="280" as="sourcePoint" />
            <mxPoint x="280" y="240" as="targetPoint" />
          </mxGeometry>
        </mxCell>
        <mxCell id="TTzXCabCXYMHxSIDEWQK-12" value="" style="endArrow=none;html=1;exitX=0.5;exitY=1;exitDx=0;exitDy=0;" edge="1" parent="TTzXCabCXYMHxSIDEWQK-1">
          <mxGeometry width="50" height="50" relative="1" as="geometry">
            <mxPoint x="280" y="240" as="sourcePoint" />
            <mxPoint x="380" y="340" as="targetPoint" />
          </mxGeometry>
        </mxCell>
        <mxCell id="TTzXCabCXYMHxSIDEWQK-13" value="" style="endArrow=none;html=1;" edge="1" parent="TTzXCabCXYMHxSIDEWQK-1">
          <mxGeometry width="50" height="50" relative="1" as="geometry">
            <mxPoint x="280" y="280" as="sourcePoint" />
            <mxPoint x="380" y="340" as="targetPoint" />
          </mxGeometry>
        </mxCell>
        <mxCell id="TTzXCabCXYMHxSIDEWQK-14" value="&lt;font face=&quot;Times New Roman&quot;&gt;M&lt;/font&gt;" style="text;html=1;strokeColor=none;fillColor=none;align=center;verticalAlign=middle;whiteSpace=wrap;rounded=0;" vertex="1" parent="TTzXCabCXYMHxSIDEWQK-1">
          <mxGeometry x="320" y="310" width="20" height="20" as="geometry" />
        </mxCell>
        <mxCell id="TTzXCabCXYMHxSIDEWQK-15" value="&lt;font face=&quot;Times New Roman&quot;&gt;O&lt;/font&gt;" style="text;html=1;strokeColor=none;fillColor=none;align=center;verticalAlign=middle;whiteSpace=wrap;rounded=0;" vertex="1" parent="TTzXCabCXYMHxSIDEWQK-1">
          <mxGeometry x="260" y="280" width="20" height="20" as="geometry" />
        </mxCell>
        <mxCell id="TTzXCabCXYMHxSIDEWQK-16" value="&lt;font face=&quot;Times New Roman&quot;&gt;P&lt;/font&gt;" style="text;html=1;strokeColor=none;fillColor=none;align=center;verticalAlign=middle;whiteSpace=wrap;rounded=0;" vertex="1" parent="TTzXCabCXYMHxSIDEWQK-1">
          <mxGeometry x="270" y="220" width="20" height="20" as="geometry" />
        </mxCell>
      </root>
    </mxGraphModel>
  </diagram>
  <diagram id="Sxyd4kgSJebOmBdW0AqQ" name="第 13 页">
    <mxGraphModel dx="653" dy="398" grid="1" gridSize="10" guides="1" tooltips="1" connect="1" arrows="1" fold="1" page="1" pageScale="1" pageWidth="827" pageHeight="1169" math="0" shadow="0">
      <root>
        <mxCell id="4m8cyjtl7vMKTiUXjvMu-0" />
        <mxCell id="4m8cyjtl7vMKTiUXjvMu-1" parent="4m8cyjtl7vMKTiUXjvMu-0" />
        <mxCell id="4m8cyjtl7vMKTiUXjvMu-2" value="" style="endArrow=none;html=1;" edge="1" parent="4m8cyjtl7vMKTiUXjvMu-1">
          <mxGeometry width="50" height="50" relative="1" as="geometry">
            <mxPoint x="240" y="240" as="sourcePoint" />
            <mxPoint x="360" y="360" as="targetPoint" />
          </mxGeometry>
        </mxCell>
        <mxCell id="4m8cyjtl7vMKTiUXjvMu-3" value="" style="endArrow=none;html=1;" edge="1" parent="4m8cyjtl7vMKTiUXjvMu-1">
          <mxGeometry width="50" height="50" relative="1" as="geometry">
            <mxPoint x="360" y="360" as="sourcePoint" />
            <mxPoint x="480" y="240" as="targetPoint" />
          </mxGeometry>
        </mxCell>
        <mxCell id="4m8cyjtl7vMKTiUXjvMu-4" value="" style="endArrow=none;html=1;" edge="1" parent="4m8cyjtl7vMKTiUXjvMu-1">
          <mxGeometry width="50" height="50" relative="1" as="geometry">
            <mxPoint x="240" y="240" as="sourcePoint" />
            <mxPoint x="480" y="240" as="targetPoint" />
          </mxGeometry>
        </mxCell>
        <mxCell id="4m8cyjtl7vMKTiUXjvMu-5" value="&lt;font face=&quot;Times New Roman&quot;&gt;A&lt;/font&gt;" style="text;html=1;strokeColor=none;fillColor=none;align=center;verticalAlign=middle;whiteSpace=wrap;rounded=0;" vertex="1" parent="4m8cyjtl7vMKTiUXjvMu-1">
          <mxGeometry x="230" y="220" width="20" height="20" as="geometry" />
        </mxCell>
        <mxCell id="4m8cyjtl7vMKTiUXjvMu-6" value="&lt;font face=&quot;Times New Roman&quot;&gt;B&lt;/font&gt;" style="text;html=1;strokeColor=none;fillColor=none;align=center;verticalAlign=middle;whiteSpace=wrap;rounded=0;" vertex="1" parent="4m8cyjtl7vMKTiUXjvMu-1">
          <mxGeometry x="480" y="220" width="20" height="20" as="geometry" />
        </mxCell>
        <mxCell id="4m8cyjtl7vMKTiUXjvMu-7" value="&lt;font face=&quot;Times New Roman&quot;&gt;C&lt;/font&gt;" style="text;html=1;strokeColor=none;fillColor=none;align=center;verticalAlign=middle;whiteSpace=wrap;rounded=0;" vertex="1" parent="4m8cyjtl7vMKTiUXjvMu-1">
          <mxGeometry x="350" y="360" width="20" height="20" as="geometry" />
        </mxCell>
        <mxCell id="4m8cyjtl7vMKTiUXjvMu-8" value="&lt;font face=&quot;Times New Roman&quot;&gt;P&lt;/font&gt;" style="text;html=1;strokeColor=none;fillColor=none;align=center;verticalAlign=middle;whiteSpace=wrap;rounded=0;" vertex="1" parent="4m8cyjtl7vMKTiUXjvMu-1">
          <mxGeometry x="420" y="300" width="20" height="20" as="geometry" />
        </mxCell>
        <mxCell id="4m8cyjtl7vMKTiUXjvMu-9" value="&lt;font face=&quot;Times New Roman&quot;&gt;Q&lt;/font&gt;" style="text;html=1;strokeColor=none;fillColor=none;align=center;verticalAlign=middle;whiteSpace=wrap;rounded=0;" vertex="1" parent="4m8cyjtl7vMKTiUXjvMu-1">
          <mxGeometry x="450" y="270" width="20" height="20" as="geometry" />
        </mxCell>
        <mxCell id="4m8cyjtl7vMKTiUXjvMu-10" value="&lt;font face=&quot;Times New Roman&quot;&gt;O&lt;/font&gt;" style="text;html=1;strokeColor=none;fillColor=none;align=center;verticalAlign=middle;whiteSpace=wrap;rounded=0;" vertex="1" parent="4m8cyjtl7vMKTiUXjvMu-1">
          <mxGeometry x="310" y="220" width="20" height="20" as="geometry" />
        </mxCell>
        <mxCell id="4m8cyjtl7vMKTiUXjvMu-12" value="" style="endArrow=none;html=1;" edge="1" parent="4m8cyjtl7vMKTiUXjvMu-1">
          <mxGeometry width="50" height="50" relative="1" as="geometry">
            <mxPoint x="320" y="240" as="sourcePoint" />
            <mxPoint x="420" y="300" as="targetPoint" />
          </mxGeometry>
        </mxCell>
        <mxCell id="4m8cyjtl7vMKTiUXjvMu-15" value="" style="endArrow=none;html=1;exitX=0.5;exitY=0;exitDx=0;exitDy=0;" edge="1" parent="4m8cyjtl7vMKTiUXjvMu-1" source="4m8cyjtl7vMKTiUXjvMu-7">
          <mxGeometry width="50" height="50" relative="1" as="geometry">
            <mxPoint x="300" y="310" as="sourcePoint" />
            <mxPoint x="320" y="240" as="targetPoint" />
          </mxGeometry>
        </mxCell>
        <mxCell id="4m8cyjtl7vMKTiUXjvMu-16" value="" style="endArrow=none;html=1;" edge="1" parent="4m8cyjtl7vMKTiUXjvMu-1">
          <mxGeometry width="50" height="50" relative="1" as="geometry">
            <mxPoint x="240" y="520" as="sourcePoint" />
            <mxPoint x="480" y="520" as="targetPoint" />
          </mxGeometry>
        </mxCell>
        <mxCell id="4m8cyjtl7vMKTiUXjvMu-17" value="" style="endArrow=none;html=1;" edge="1" parent="4m8cyjtl7vMKTiUXjvMu-1">
          <mxGeometry width="50" height="50" relative="1" as="geometry">
            <mxPoint x="240" y="640" as="sourcePoint" />
            <mxPoint x="480" y="640" as="targetPoint" />
          </mxGeometry>
        </mxCell>
        <mxCell id="4m8cyjtl7vMKTiUXjvMu-18" value="" style="endArrow=none;html=1;" edge="1" parent="4m8cyjtl7vMKTiUXjvMu-1">
          <mxGeometry width="50" height="50" relative="1" as="geometry">
            <mxPoint x="240" y="640" as="sourcePoint" />
            <mxPoint x="240" y="520" as="targetPoint" />
          </mxGeometry>
        </mxCell>
        <mxCell id="4m8cyjtl7vMKTiUXjvMu-19" value="" style="endArrow=none;html=1;" edge="1" parent="4m8cyjtl7vMKTiUXjvMu-1">
          <mxGeometry width="50" height="50" relative="1" as="geometry">
            <mxPoint x="480" y="640" as="sourcePoint" />
            <mxPoint x="480" y="520" as="targetPoint" />
          </mxGeometry>
        </mxCell>
        <mxCell id="4m8cyjtl7vMKTiUXjvMu-20" value="" style="endArrow=none;html=1;" edge="1" parent="4m8cyjtl7vMKTiUXjvMu-1">
          <mxGeometry width="50" height="50" relative="1" as="geometry">
            <mxPoint x="240" y="520" as="sourcePoint" />
            <mxPoint x="360" y="600" as="targetPoint" />
          </mxGeometry>
        </mxCell>
        <mxCell id="4m8cyjtl7vMKTiUXjvMu-21" value="" style="endArrow=none;html=1;" edge="1" parent="4m8cyjtl7vMKTiUXjvMu-1">
          <mxGeometry width="50" height="50" relative="1" as="geometry">
            <mxPoint x="240" y="640" as="sourcePoint" />
            <mxPoint x="360" y="600" as="targetPoint" />
          </mxGeometry>
        </mxCell>
        <mxCell id="4m8cyjtl7vMKTiUXjvMu-22" value="" style="endArrow=none;html=1;" edge="1" parent="4m8cyjtl7vMKTiUXjvMu-1">
          <mxGeometry width="50" height="50" relative="1" as="geometry">
            <mxPoint x="360" y="600" as="sourcePoint" />
            <mxPoint x="480" y="520" as="targetPoint" />
          </mxGeometry>
        </mxCell>
        <mxCell id="4m8cyjtl7vMKTiUXjvMu-23" value="" style="endArrow=none;html=1;" edge="1" parent="4m8cyjtl7vMKTiUXjvMu-1">
          <mxGeometry width="50" height="50" relative="1" as="geometry">
            <mxPoint x="360" y="600" as="sourcePoint" />
            <mxPoint x="480" y="640" as="targetPoint" />
          </mxGeometry>
        </mxCell>
        <mxCell id="2ZnW4FiE8cuRvk5kS9lR-0" value="&lt;font face=&quot;Times New Roman&quot;&gt;A&lt;/font&gt;" style="text;html=1;strokeColor=none;fillColor=none;align=center;verticalAlign=middle;whiteSpace=wrap;rounded=0;" vertex="1" parent="4m8cyjtl7vMKTiUXjvMu-1">
          <mxGeometry x="220" y="510" width="20" height="20" as="geometry" />
        </mxCell>
        <mxCell id="2ZnW4FiE8cuRvk5kS9lR-1" value="&lt;font face=&quot;Times New Roman&quot;&gt;B&lt;/font&gt;" style="text;html=1;strokeColor=none;fillColor=none;align=center;verticalAlign=middle;whiteSpace=wrap;rounded=0;" vertex="1" parent="4m8cyjtl7vMKTiUXjvMu-1">
          <mxGeometry x="480" y="510" width="20" height="20" as="geometry" />
        </mxCell>
        <mxCell id="2ZnW4FiE8cuRvk5kS9lR-2" value="&lt;font face=&quot;Times New Roman&quot;&gt;C&lt;/font&gt;" style="text;html=1;strokeColor=none;fillColor=none;align=center;verticalAlign=middle;whiteSpace=wrap;rounded=0;" vertex="1" parent="4m8cyjtl7vMKTiUXjvMu-1">
          <mxGeometry x="480" y="630" width="20" height="20" as="geometry" />
        </mxCell>
        <mxCell id="2ZnW4FiE8cuRvk5kS9lR-3" value="&lt;font face=&quot;Times New Roman&quot;&gt;D&lt;/font&gt;" style="text;html=1;strokeColor=none;fillColor=none;align=center;verticalAlign=middle;whiteSpace=wrap;rounded=0;" vertex="1" parent="4m8cyjtl7vMKTiUXjvMu-1">
          <mxGeometry x="220" y="630" width="20" height="20" as="geometry" />
        </mxCell>
        <mxCell id="2ZnW4FiE8cuRvk5kS9lR-4" value="&lt;font face=&quot;Times New Roman&quot;&gt;P&lt;/font&gt;" style="text;html=1;strokeColor=none;fillColor=none;align=center;verticalAlign=middle;whiteSpace=wrap;rounded=0;" vertex="1" parent="4m8cyjtl7vMKTiUXjvMu-1">
          <mxGeometry x="350" y="575" width="20" height="20" as="geometry" />
        </mxCell>
      </root>
    </mxGraphModel>
  </diagram>
  <diagram id="i2Wg8pg-nmlCAlZGgeSO" name="第 14 页">
    <mxGraphModel dx="947" dy="622" grid="1" gridSize="10" guides="1" tooltips="1" connect="1" arrows="1" fold="1" page="1" pageScale="1" pageWidth="827" pageHeight="1169" math="0" shadow="0">
      <root>
        <mxCell id="4bIiCuGyHUWIf5wxschj-0" />
        <mxCell id="4bIiCuGyHUWIf5wxschj-1" parent="4bIiCuGyHUWIf5wxschj-0" />
        <mxCell id="4bIiCuGyHUWIf5wxschj-2" value="" style="endArrow=none;html=1;" edge="1" parent="4bIiCuGyHUWIf5wxschj-1">
          <mxGeometry width="50" height="50" relative="1" as="geometry">
            <mxPoint x="240" y="520" as="sourcePoint" />
            <mxPoint x="480" y="520" as="targetPoint" />
          </mxGeometry>
        </mxCell>
        <mxCell id="4bIiCuGyHUWIf5wxschj-3" value="" style="endArrow=none;html=1;" edge="1" parent="4bIiCuGyHUWIf5wxschj-1">
          <mxGeometry width="50" height="50" relative="1" as="geometry">
            <mxPoint x="240" y="640" as="sourcePoint" />
            <mxPoint x="480" y="640" as="targetPoint" />
          </mxGeometry>
        </mxCell>
        <mxCell id="4bIiCuGyHUWIf5wxschj-4" value="" style="endArrow=none;html=1;" edge="1" parent="4bIiCuGyHUWIf5wxschj-1">
          <mxGeometry width="50" height="50" relative="1" as="geometry">
            <mxPoint x="240" y="640" as="sourcePoint" />
            <mxPoint x="240" y="520" as="targetPoint" />
          </mxGeometry>
        </mxCell>
        <mxCell id="4bIiCuGyHUWIf5wxschj-5" value="" style="endArrow=none;html=1;" edge="1" parent="4bIiCuGyHUWIf5wxschj-1">
          <mxGeometry width="50" height="50" relative="1" as="geometry">
            <mxPoint x="480" y="640" as="sourcePoint" />
            <mxPoint x="480" y="520" as="targetPoint" />
          </mxGeometry>
        </mxCell>
        <mxCell id="4bIiCuGyHUWIf5wxschj-6" value="" style="endArrow=none;html=1;" edge="1" parent="4bIiCuGyHUWIf5wxschj-1">
          <mxGeometry width="50" height="50" relative="1" as="geometry">
            <mxPoint x="240" y="520" as="sourcePoint" />
            <mxPoint x="360" y="600" as="targetPoint" />
          </mxGeometry>
        </mxCell>
        <mxCell id="4bIiCuGyHUWIf5wxschj-7" value="" style="endArrow=none;html=1;" edge="1" parent="4bIiCuGyHUWIf5wxschj-1">
          <mxGeometry width="50" height="50" relative="1" as="geometry">
            <mxPoint x="240" y="640" as="sourcePoint" />
            <mxPoint x="360" y="600" as="targetPoint" />
          </mxGeometry>
        </mxCell>
        <mxCell id="4bIiCuGyHUWIf5wxschj-8" value="" style="endArrow=none;html=1;" edge="1" parent="4bIiCuGyHUWIf5wxschj-1">
          <mxGeometry width="50" height="50" relative="1" as="geometry">
            <mxPoint x="360" y="600" as="sourcePoint" />
            <mxPoint x="480" y="520" as="targetPoint" />
          </mxGeometry>
        </mxCell>
        <mxCell id="4bIiCuGyHUWIf5wxschj-9" value="" style="endArrow=none;html=1;" edge="1" parent="4bIiCuGyHUWIf5wxschj-1">
          <mxGeometry width="50" height="50" relative="1" as="geometry">
            <mxPoint x="360" y="600" as="sourcePoint" />
            <mxPoint x="480" y="640" as="targetPoint" />
          </mxGeometry>
        </mxCell>
        <mxCell id="4bIiCuGyHUWIf5wxschj-10" value="&lt;font face=&quot;Times New Roman&quot;&gt;A&lt;/font&gt;" style="text;html=1;strokeColor=none;fillColor=none;align=center;verticalAlign=middle;whiteSpace=wrap;rounded=0;" vertex="1" parent="4bIiCuGyHUWIf5wxschj-1">
          <mxGeometry x="220" y="510" width="20" height="20" as="geometry" />
        </mxCell>
        <mxCell id="4bIiCuGyHUWIf5wxschj-11" value="&lt;font face=&quot;Times New Roman&quot;&gt;B&lt;/font&gt;" style="text;html=1;strokeColor=none;fillColor=none;align=center;verticalAlign=middle;whiteSpace=wrap;rounded=0;" vertex="1" parent="4bIiCuGyHUWIf5wxschj-1">
          <mxGeometry x="480" y="510" width="20" height="20" as="geometry" />
        </mxCell>
        <mxCell id="4bIiCuGyHUWIf5wxschj-12" value="&lt;font face=&quot;Times New Roman&quot;&gt;C&lt;/font&gt;" style="text;html=1;strokeColor=none;fillColor=none;align=center;verticalAlign=middle;whiteSpace=wrap;rounded=0;" vertex="1" parent="4bIiCuGyHUWIf5wxschj-1">
          <mxGeometry x="480" y="630" width="20" height="20" as="geometry" />
        </mxCell>
        <mxCell id="4bIiCuGyHUWIf5wxschj-13" value="&lt;font face=&quot;Times New Roman&quot;&gt;D&lt;/font&gt;" style="text;html=1;strokeColor=none;fillColor=none;align=center;verticalAlign=middle;whiteSpace=wrap;rounded=0;" vertex="1" parent="4bIiCuGyHUWIf5wxschj-1">
          <mxGeometry x="220" y="630" width="20" height="20" as="geometry" />
        </mxCell>
        <mxCell id="4bIiCuGyHUWIf5wxschj-14" value="&lt;font face=&quot;Times New Roman&quot;&gt;P&lt;/font&gt;" style="text;html=1;strokeColor=none;fillColor=none;align=center;verticalAlign=middle;whiteSpace=wrap;rounded=0;" vertex="1" parent="4bIiCuGyHUWIf5wxschj-1">
          <mxGeometry x="350" y="575" width="20" height="20" as="geometry" />
        </mxCell>
      </root>
    </mxGraphModel>
  </diagram>
</mxfile>
